<?xml version="1.0" encoding="utf-8"?>
<!-- Generator: Adobe Illustrator 25.0.0, SVG Export Plug-In . SVG Version: 6.00 Build 0)  -->
<svg version="1.1" id="Layer_1" xmlns="http://www.w3.org/2000/svg" xmlns:xlink="http://www.w3.org/1999/xlink" x="0px" y="0px"
	 viewBox="0 0 181.4 124.8" style="enable-background:new 0 0 181.4 124.8;" xml:space="preserve">
<style type="text/css">
	.st0{fill:#FFFFFF;}
	.st1{fill:none;stroke:#231F20;stroke-width:10.162;stroke-linecap:round;stroke-linejoin:round;}
</style>
<path id="Rectangle_7" class="st0" d="M25,0h131.4c13.8,0,25,11.2,25,25v74.8c0,13.8-11.2,25-25,25H25c-13.8,0-25-11.2-25-25V25
	C0,11.2,11.2,0,25,0z"/>
<g>
	<path class="st1" d="M100.2,72.5l10,9.8c7.6,7.6,19.9,7.5,27.5-0.1c0.2-0.2,0.3-0.3,0.5-0.5c7.2-7.8,6.5-19.9-0.9-27.3l0,0
		c-4.8-4.8-12.7-4.8-17.4,0.1l-5,5"/>
	<path class="st1" d="M72.2,58.8l-2.5-2.5c-7.3-7.2-19-7.1-26.2,0.1s-7.1,19,0.1,26.2c7.3,7.2,19,7.1,26.2-0.1c0,0,0,0,0,0
		l45.3-45.7"/>
	<line class="st1" x1="91.3" y1="83" x2="86.3" y2="88"/>
</g>
</svg>
